<svg width="90" height="90" viewBox="0 0 90 90" fill="none" xmlns="http://www.w3.org/2000/svg">
<rect width="90" height="90" rx="20" fill="#4D2424"/>
<path d="M58.196 16.0176H32.5649C23.8607 16.0176 16.7793 23.0994 16.7793 31.8035V57.4347C16.7793 66.1392 23.8607 73.2206 32.5649 73.2206H58.196C66.9009 73.2206 73.9823 66.1388 73.9823 57.4347V31.8035C73.9827 23.0994 66.9009 16.0176 58.196 16.0176ZM68.9073 57.4347C68.9073 63.3406 64.1024 68.1453 58.1964 68.1453H32.5649C26.6593 68.1456 21.8546 63.3406 21.8546 57.4347V31.8035C21.8546 25.8979 26.6593 21.0929 32.5649 21.0929H58.196C64.102 21.0929 68.907 25.8979 68.907 31.8035V57.4347H68.9073Z" fill="#FFE4C5"/>
<path d="M45.3804 29.8809C37.2528 29.8809 30.6406 36.493 30.6406 44.6206C30.6406 52.7479 37.2528 59.3597 45.3804 59.3597C53.508 59.3597 60.1202 52.7479 60.1202 44.6206C60.1202 36.493 53.508 29.8809 45.3804 29.8809ZM45.3804 54.2841C40.0516 54.2841 35.716 49.9491 35.716 44.6203C35.716 39.2912 40.0513 34.9559 45.3804 34.9559C50.7095 34.9559 55.0449 39.2912 55.0449 44.6203C55.0449 49.9491 50.7092 54.2841 45.3804 54.2841Z" fill="#FFE4C5"/>
<path d="M60.7395 25.5762C59.7616 25.5762 58.8011 25.972 58.1105 26.6657C57.4165 27.3559 57.0176 28.3169 57.0176 29.2981C57.0176 30.2763 57.4168 31.2369 58.1105 31.9305C58.8007 32.6207 59.7616 33.02 60.7395 33.02C61.7207 33.02 62.6783 32.6207 63.3719 31.9305C64.0655 31.2369 64.4614 30.2759 64.4614 29.2981C64.4614 28.3169 64.0655 27.3559 63.3719 26.6657C62.6817 25.972 61.7207 25.5762 60.7395 25.5762Z" fill="#FFE4C5"/>
</svg>
