<svg width="90" height="90" viewBox="0 0 90 90" fill="none" xmlns="http://www.w3.org/2000/svg">
<rect width="90" height="90" rx="20" fill="#4D2424"/>
<path d="M71.6115 54.0592C68.7057 51.7241 66.0403 50.5888 63.4626 50.5888C59.7338 50.5888 57.049 52.9608 54.6183 55.3908C54.3388 55.6705 54.0003 55.8009 53.5534 55.8009C51.5051 55.8011 47.9017 53.236 42.8434 48.177C36.8925 42.2257 34.6425 38.4406 36.1554 36.9271C40.2568 32.8272 41.5371 28.7171 35.2577 20.9077C33.0098 18.1098 30.8104 16.75 28.534 16.75C25.4639 16.75 23.1302 19.204 21.0712 21.3694C20.7152 21.7436 20.3789 22.0972 20.0492 22.4269C17.722 24.7539 17.7232 29.8296 20.0526 36.0051C22.6084 42.7808 27.6546 50.1516 34.2619 56.7599C39.3716 61.8692 44.9313 65.9984 50.3402 68.7708C55.0625 71.1914 59.643 72.4883 63.238 72.4883C63.2384 72.4883 63.2388 72.4883 63.2394 72.4883C65.4892 72.4883 67.3167 71.9975 68.5236 70.9994C70.9752 68.9725 75.5384 65.218 75.508 60.7583C75.4912 58.3664 74.1806 56.1248 71.6115 54.0592Z" fill="#FFE4C5"/>
</svg>
