<svg width="282" height="209" viewBox="0 0 282 209" fill="none" xmlns="http://www.w3.org/2000/svg">
<path d="M27.127 33.1895L239.187 139.016L218.201 181.071C205.87 205.779 175.844 215.813 151.136 203.483L28.5523 142.309C3.84394 129.978 -6.19032 99.952 6.14018 75.2437L27.127 33.1895Z" fill="#FFE4C5"/>
<path d="M47 69.3594L254.439 175.463L275.842 133.619C288.417 109.034 278.681 78.9103 254.096 66.3353L135.687 5.76963C111.102 -6.80536 80.9779 2.93056 68.4029 27.5154L47 69.3594Z" fill="#FFE4C5"/>
<path d="M173.778 51.9256H154.037C150.47 51.937 150.604 57.2534 154.037 57.2222H173.778V59.9401H154.037C150.49 59.9088 150.621 65.2225 154.037 65.2367H173.778V68.0142H154.037C150.49 68.0142 150.621 73.325 154.037 73.3108H173.778V75.9577H154.037C150.564 75.9832 150.621 81.2997 154.037 81.3168H173.778V83.9693H154.037C150.564 83.958 150.55 89.2659 154.037 89.2659H173.778V91.9128H154.037C150.564 91.9242 150.55 97.2378 154.037 97.2122H173.778V99.9244H154.037C150.564 99.8932 150.55 105.201 154.037 105.221H173.778V107.862H154.037C150.564 107.859 150.621 113.179 154.037 113.162H173.778V164.733C173.789 172.592 185.726 172.45 185.76 164.733V44.0474C185.726 40.4577 182.778 35.9194 177.927 35.9052H154.037C150.47 35.908 150.604 41.2245 154.037 41.2018L173.778 41.2671V43.9083H154.037C150.476 43.8912 150.609 49.2049 154.037 49.2077H173.778V51.9256ZM152.68 143.357C152.668 134.183 143.16 124.317 131.8 130.707V95.6218L124.453 37.7568C124.299 36.2261 123.002 35.8654 122.13 35.8398C121.229 35.8654 119.426 36.2261 119.23 37.7568L111.92 95.6218V130.707C100.56 124.317 91.3583 134.246 91.3555 143.286C91.3583 151.328 97.5495 157.934 105.928 157.914C114.368 157.934 120.44 150.53 120.44 143.286V106.84H123.28V143.286C123.28 151.397 129.562 157.4 136.543 157.781C136.426 162.228 137.878 168.573 140.61 171.089C143.813 174.043 147.627 170.266 146.062 167.19C144.552 164.327 143.069 162.632 144.273 156.381C149.306 154.052 152.668 149.15 152.68 143.357ZM106.251 150.573C104.336 150.573 102.5 149.812 101.145 148.458C99.7913 147.104 99.0306 145.267 99.0306 143.352C99.0306 141.437 99.7913 139.601 101.145 138.247C102.5 136.892 104.336 136.132 106.251 136.132C110.188 136.154 113.394 139.383 113.422 143.357C113.414 145.26 112.657 147.084 111.316 148.434C109.974 149.785 108.155 150.553 106.251 150.573ZM130.593 143.357C130.6 141.451 131.356 139.625 132.698 138.273C134.041 136.921 135.862 136.152 137.767 136.132C139.673 136.149 141.495 136.917 142.837 138.27C144.18 139.623 144.935 141.451 144.938 143.357C144.935 145.262 144.18 147.089 142.837 148.44C141.494 149.791 139.672 150.558 137.767 150.573C135.862 150.556 134.041 149.789 132.698 148.438C131.355 147.087 130.599 145.261 130.593 143.357Z" fill="#FFF9E4"/>
</svg>
