<svg width="90" height="90" viewBox="0 0 90 90" fill="none" xmlns="http://www.w3.org/2000/svg">
<rect width="90" height="90" rx="20" fill="#4D2424"/>
<path d="M60.5425 70.2021C60.0957 70.2021 59.6519 70.0698 59.2712 69.8117L44.888 60.0553L37.1737 65.6061C36.5686 66.0412 35.7888 66.1508 35.0863 65.8996C34.3846 65.6478 33.8518 65.0666 33.6616 64.346L29.7881 49.6666L15.9477 44.3745C15.0764 44.0412 14.4986 43.2076 14.4922 42.2747C14.4859 41.3418 15.0523 40.5004 15.9194 40.1553L68.5455 19.215C68.7843 19.1135 69.037 19.055 69.2918 19.0393C69.383 19.0338 69.4745 19.0338 69.5654 19.039C70.0931 19.0704 70.6115 19.2853 71.016 19.682C71.058 19.7231 71.0978 19.7651 71.1356 19.8088C71.4707 20.1917 71.6549 20.6584 71.6896 21.1339C71.698 21.2535 71.6974 21.3745 71.6869 21.4956C71.6796 21.5819 71.6672 21.668 71.6497 21.7534L62.7667 68.3617C62.6239 69.1104 62.1143 69.7371 61.4102 70.0291C61.131 70.145 60.836 70.2021 60.5425 70.2021ZM46.1509 55.4397L58.963 64.1301L65.8748 27.8637L40.911 51.8853L46.0905 55.3989C46.1114 55.4119 46.1313 55.4258 46.1509 55.4397ZM35.4854 53.5072L37.2008 60.0073L40.8968 57.3478L36.0572 54.0648C35.8323 53.9126 35.6397 53.723 35.4854 53.5072ZM22.9867 42.217L32.4902 45.8505C33.171 46.1107 33.6848 46.6832 33.8708 47.3878L35.076 51.9554C35.1313 51.4285 35.3701 50.9328 35.758 50.5594L59.545 27.6705L22.9867 42.217Z" fill="#FFE4C5"/>
</svg>
