<svg width="90" height="90" viewBox="0 0 90 90" fill="none" xmlns="http://www.w3.org/2000/svg">
<rect width="90" height="90" rx="20" fill="#4D2424"/>
<path d="M59.5542 48.8877C59.4428 48.8343 55.2725 46.7807 54.5315 46.514C54.2289 46.4053 53.9048 46.2993 53.5601 46.2993C52.997 46.2993 52.524 46.5799 52.1555 47.1312C51.7389 47.7504 50.4778 49.2245 50.0882 49.6648C50.0373 49.723 49.9678 49.7924 49.9262 49.7924C49.8889 49.7924 49.2435 49.5266 49.0481 49.4418C44.5745 47.4985 41.1789 42.8255 40.7133 42.0375C40.6468 41.9242 40.644 41.8727 40.6435 41.8727C40.6598 41.8127 40.8103 41.6619 40.8879 41.5841C41.115 41.3594 41.3611 41.0631 41.5992 40.7766C41.712 40.6408 41.8249 40.5048 41.9358 40.3767C42.2812 39.9748 42.435 39.6628 42.6133 39.3013L42.7067 39.1136C43.142 38.2487 42.7702 37.5188 42.6501 37.2831C42.5514 37.0858 40.7906 32.8361 40.6034 32.3896C40.1532 31.3122 39.5583 30.8105 38.7316 30.8105C38.6549 30.8105 38.7316 30.8105 38.41 30.8241C38.0183 30.8406 35.8852 31.1215 34.9421 31.716C33.942 32.3465 32.25 34.3564 32.25 37.8911C32.25 41.0724 34.2688 44.0762 35.1356 45.2186C35.1572 45.2473 35.1967 45.3059 35.2541 45.3898C38.5736 50.2376 42.7117 53.8303 46.9067 55.5061C50.9453 57.1193 52.8577 57.3057 53.9449 57.3057H53.9451C54.402 57.3057 54.7677 57.2699 55.0903 57.2381L55.295 57.2186C56.6901 57.0949 59.7561 55.5063 60.4535 53.5682C61.0029 52.0417 61.1477 50.3739 60.7822 49.7686C60.5319 49.3571 60.1004 49.15 59.5542 48.8877Z" fill="#FFE4C5"/>
<path d="M46.336 16.0176C30.8435 16.0176 18.2395 28.5269 18.2395 43.9029C18.2395 48.8761 19.5704 53.7441 22.0916 58.0047L17.2659 72.2396C17.176 72.505 17.2429 72.7984 17.4392 72.9983C17.5809 73.143 17.7731 73.221 17.9694 73.221C18.0446 73.221 18.1204 73.2096 18.1943 73.1861L33.0375 68.4694C37.0993 70.6396 41.6901 71.7851 46.3362 71.7851C61.8271 71.7853 74.4299 59.2773 74.4299 43.9029C74.4299 28.5269 61.8271 16.0176 46.336 16.0176ZM46.336 65.9766C41.9642 65.9766 37.7298 64.7142 34.09 62.3258C33.9676 62.2453 33.8255 62.2041 33.6825 62.2041C33.6069 62.2041 33.5312 62.2156 33.4574 62.239L26.0219 64.6026L28.4222 57.521C28.4999 57.2919 28.461 57.0391 28.318 56.8437C25.5463 53.0564 24.0811 48.5817 24.0811 43.9029C24.0811 31.7299 34.0646 21.8263 46.3358 21.8263C58.6056 21.8263 68.5879 31.7299 68.5879 43.9029C68.5881 56.0744 58.6059 65.9766 46.336 65.9766Z" fill="#FFE4C5"/>
</svg>
